<svg id="Capa_1" enable-background="new 0 0 512 512" height="512" viewBox="0 0 512 512" width="512" xmlns="http://www.w3.org/2000/svg"><g><g><g><g><g><g><g><g><g><g><g><path d="m192.416 451.635h79.029c13.075 0 26.106-1.536 38.823-4.578l6.715-1.606c.998-.239 1.702-1.131 1.702-2.157l.129-10.373c.022-1.772-.081-3.549-.395-5.294-2.924-16.244-15.962-28.968-32.529-31.312l-80.823-9.306c-18.644-2.638-27.961-8.886-44.214-18.394-22.19-12.981-47.435-19.822-73.143-19.822h-28.979v58.47l105.643 39.322c8.971 3.34 18.468 5.05 28.042 5.05z" fill="#ffece3"/></g><path d="m451.404 384.857-132.72 58.438-8.417 2.013c-12.717 3.041-25.747 4.578-38.823 4.578h-79.028c-9.574 0-19.07-1.71-28.042-5.05l-105.643-39.322v62.115l105.643 39.322c8.972 3.34 18.469 5.05 28.042 5.05h108.873c15.236 0 30.158-4.33 43.028-12.485l136.319-76.908c8.994-7.986 10.661-21.407 3.895-31.351-7.403-10.881-19.65-12.772-33.127-6.4z" fill="#ffddce"/><path d="m74.784 483.664c0 7.684-6.229 13.914-13.914 13.914h-23.633c-7.684 0-13.914-6.229-13.914-13.914v-150.928c0-7.684 6.229-13.914 13.914-13.914h23.633c7.684 0 13.914 6.229 13.914 13.914z" fill="#7c8b96"/></g></g></g></g></g></g></g></g></g><g><g><g><g><g><g><g><path d="m127.923 277.688h195.186c24.962-29.486 40.014-67.629 40.014-109.29 0-81.374-57.426-149.324-133.96-165.567-1.248-.265-2.542-.283-3.796-.052-78.378 14.405-137.765 83.077-137.765 165.619 0 41.727 15.177 79.91 40.312 109.329z" fill="#f5f5f5"/><g><path d="m361.099 168.398c0 28.536-7.099 55.413-19.626 78.963.632.164 1.258.329 1.875.497 5.188 1.405 9.961 2.968 13.868 4.688 11.952 5.261 20.959 15.069 25.395 26.863-.007.008-.013.023-.017.042 26.025-29.644 41.805-68.505 41.805-111.053-.001-93.004-75.395-168.398-168.399-168.398-10.82 0-21.397 1.033-31.65 2.983 77.872 14.811 136.749 83.231 136.749 165.415z" fill="#eaeaea"/></g><g><g><g><g><g><g><g><g><g><g><g><g><g><g><g><g><g><path d="m297.322 239.439c-4.889-.613-8.565-4.755-8.585-9.682l-.189-44.82-68.482.289.189 44.82c.021 4.927-3.62 9.099-8.503 9.754 0 0-12.645 43.218 42.967 42.984s42.603-43.345 42.603-43.345z" fill="#ffece3"/><g><path d="m297.322 239.439c-4.889-.613-8.565-4.755-8.585-9.682l-.189-44.82-44.055.186.18 84.419c.021 4.927 3.696 9.068 8.585 9.682 0 0 .404 1.345.766 3.554.234.001.459.007.695.006 55.612-.234 42.603-43.345 42.603-43.345z" fill="#ffddce"/></g><path d="m318.943 122.275-4.142.017-.021-4.864-.049-11.628c-.069-16.418-6.876-32.298-19.363-42.958-9.789-8.358-23.531-15.631-41.644-15.756-18.111.278-31.791 7.667-41.51 16.107-12.396 10.765-19.069 26.702-19 43.12l.049 11.628.021 4.865-4.142.017c-6.073.026-10.976 4.97-10.95 11.043l.051 12.186c.026 6.073 4.97 10.976 11.043 10.95l4.159-.018c.41 15.958 7.181 31.29 19.341 41.672 9.79 8.358 23.531 15.631 41.644 15.756 18.111-.278 31.791-7.667 41.51-16.107 12.072-10.483 18.713-25.873 18.989-41.833l4.159-.018c6.073-.026 10.976-4.97 10.95-11.043l-.051-12.186c-.027-6.073-4.971-10.975-11.044-10.95z" fill="#ffece3"/><path d="m329.986 133.225c-.026-6.073-4.97-10.976-11.043-10.95l-4.143.017-.02-4.865-.049-11.628c-.069-16.418-6.877-32.298-19.363-42.958-9.789-8.358-23.531-15.631-41.644-15.756-.542.008-1.068.043-1.602.064l.145 109.321c-.275 15.961-6.917 31.35-18.989 41.833-3.077 2.672-6.554 5.236-10.439 7.505 8.511 4.964 18.99 8.514 31.59 8.602 18.111-.278 31.791-7.667 41.51-16.107 12.072-10.483 18.714-25.873 18.989-41.833l4.159-.017c6.073-.026 10.976-4.97 10.95-11.043z" fill="#ffddce"/><path d="m343.348 247.858c-15.644-4.238-35.076-7.044-46.026-8.418l-42.672 26.94-42.898-26.58c-14.566 1.953-44.15 6.573-59.782 13.611-10.956 4.934-19.388 13.695-24.047 24.277 24.512 28.703 58.488 49.078 97.105 56.263 1.482.276 3.01.255 4.484-.061 49.368-10.586 90.75-42.696 113.836-86.032z" fill="#ddeafb"/><path d="m357.233 252.556c-4.374-1.925-9.831-3.654-15.743-5.185-23.551 44.272-66.273 76.792-117.106 86.46.175.033.535.101.535.101 2.674.501 5.067.881 7.823 1.258l44.612.278c40.915-5.174 77.254-25.029 103.573-54.12.571-.646 1.138-1.289 1.699-1.93-4.433-11.794-13.44-21.601-25.393-26.862z" fill="#bed8fb"/></g></g></g></g></g></g><path d="m277.372 43.368-47.759.201c-8.719.037-16.105 5.657-18.793 13.459-1.008 2.924-3.786 4.867-6.88 4.88-11.115.047-20.087 9.095-20.04 20.21l.177 41.965s17.658-.284 23.656 5.581c1.261 1.233 3.379.351 3.371-1.413l-.116-27.587c-.04-9.579 7.692-17.376 17.27-17.417l.209-.001c2.87-.012 5.709.419 8.426 1.262 5.169 1.604 10.517 2.556 15.929 2.533l2.143-.009c5.412-.023 10.752-1.02 15.907-2.668 2.709-.866 5.545-1.321 8.415-1.333l.208-.001c9.579-.04 17.376 7.692 17.417 17.27l.116 27.587c.007 1.764 10.519 2.593 11.769 1.349 5.948-5.916 15.222-5.745 15.222-5.745l-.143-34.011c-.108-25.574-20.929-46.22-46.504-46.112z" fill="#aa8080"/><path d="m323.876 89.482c-.108-25.576-20.928-46.222-46.504-46.114l-25.254.106.058 43.555c.216.002.43.013.646.012l2.143-.009c5.412-.023 10.752-1.02 15.907-2.668 2.71-.866 5.545-1.321 8.415-1.333l.208-.001c9.578-.04 17.376 7.692 17.417 17.27l.116 27.587c.007 1.764 10.519 2.593 11.769 1.349 5.948-5.916 15.222-5.745 15.222-5.745z" fill="#9d6b6b"/></g><g fill="#bed8fb"><path d="m182.173 244.717 27.859 30.438c5.216 5.699 13.602 7.199 20.47 3.662l24.147-12.436-42.898-26.58c-7.302.978-18.378 2.627-29.578 4.916z"/><path d="m326.94 244.106-27.585 30.719c-5.174 5.762-13.572 7.334-20.48 3.833l-24.226-12.278 42.672-26.94c7.31.917 18.4 2.473 29.619 4.666z"/></g></g></g></g></g></g></g></g></g></g></g><g><path d="m278.875 278.658-24.226-12.278-24.147 12.436c-.043.022-.086.038-.129.06l10.816 19.843 27.167-.115 10.666-19.878c-.048-.025-.098-.043-.147-.068z" fill="#fb636f"/></g><path d="m276.734 335.532s-.04.005.604-.075l-4.641-18.852c-12.23 6.614-25.371 11.759-39.188 15.198l-.784 3.385c.118.016.198.03.355.051 7.494 1.024 15.144 1.557 22.92 1.557 7.02.001 13.939-.429 20.734-1.264z" fill="#fb636f"/><path d="m272.697 316.605-4.34-18.002-27.167.115-7.681 33.086c13.816-3.439 26.958-8.584 39.188-15.199z" fill="#fc8086"/></g></g></g></g></g></g></g></g></svg>