<svg id="Capa_1" enable-background="new 0 0 512 512" height="512" viewBox="0 0 512 512" width="512" xmlns="http://www.w3.org/2000/svg"><g><path d="m107.766 73.672h237.926v126.681h-237.926z" fill="#596c76"/><path d="m327.676 359.175c-11.083-11.654-30.818-19.88-54.119-24.686-6.07-1.252-10.683-6.202-11.382-12.36l-5.99-52.791h-70.461l-5.99 52.791c-.699 6.158-5.312 11.108-11.382 12.36-23.3 4.806-43.036 13.032-54.119 24.686-24.43 25.69 5.026 145.325 5.026 145.325h203.392s29.455-119.635 5.025-145.325z" fill="#ffcebf"/><path d="m327.676 359.175c-11.083-11.654-30.818-19.88-54.119-24.686-1.14-.235-2.228-.6-3.249-1.079-13.804 17.127-35.279 28.448-49.354 28.448s-35.55-11.321-49.354-28.448c-1.021.479-2.109.845-3.249 1.079-23.3 4.807-43.036 13.032-54.119 24.686-24.43 25.69 5.026 145.325 5.026 145.325h203.392c.001 0 29.456-119.635 5.026-145.325z" fill="#01c0fa"/><path d="m327.676 359.175c-11.083-11.654-30.818-19.879-54.119-24.687-1.14-.234-2.228-.6-3.249-1.079-1.549 1.922-3.199 3.766-4.92 5.534 15.607 4.873 28.547 11.611 36.745 20.232 24.43 25.69-5.026 145.325-5.026 145.325h25.542c.002 0 29.457-119.635 5.027-145.325z" fill="#0290cf"/><path d="m233.292 322.896c7.793 0 17.837-1.653 28.449-4.592l-5.556-48.967h-70.461l-4.598 40.519c18.31 8.061 38.631 13.04 52.166 13.04z" fill="#ffb09e"/><path d="m96.217 200.353v-119.729c0-16.919 13.716-30.635 30.635-30.635h8.636c3.809 0 6.897-3.088 6.897-6.897v-5.466c0-16.638 13.488-30.126 30.126-30.126h187.607c5.658 0 10.245 4.587 10.245 10.245v10.075c0 49.943-40.487 90.43-90.43 90.43h-33.437v82.102h-150.279z" fill="#596c76"/><path d="m360.118 7.5h-24.671c5.658 0 10.245 4.587 10.245 10.246v10.075c0 49.943-40.487 90.43-90.43 90.43h24.671c49.943 0 90.43-40.487 90.43-90.43v-10.075c.001-5.659-4.586-10.246-10.245-10.246z" fill="#465a61"/><g fill="#ffcebf"><path d="m335.399 179.493h-42.784v41.719h42.784c11.52 0 20.86-9.339 20.86-20.86s-9.339-20.859-20.86-20.859z"/><path d="m106.51 179.493h42.784v41.719h-42.784c-11.52 0-20.86-9.339-20.86-20.86s9.34-20.859 20.86-20.859z"/></g><path d="m313.097 254.857c-11.232 24.532-65.165 44.311-92.142 44.311s-80.911-19.779-92.142-44.311c-8.672-18.922-7.847-57.12-4.012-94.817 23.383 0 42.43-18.587 43.161-41.793h111.973c10.898 0 21.356-1.933 31.031-5.464 7.46 48.124 14.565 114.919 2.131 142.074z" fill="#ffcebf"/><path d="m310.966 112.783c-7.797 2.846-16.109 4.632-24.744 5.227 7.146 47.62 13.324 110.662 1.335 136.848-9.654 21.086-50.857 38.661-79.372 43.182 4.66.739 8.981 1.129 12.77 1.129 26.977 0 80.911-19.778 92.142-44.311 12.434-27.156 5.329-93.951-2.131-142.075z" fill="#ffb09e"/><path d="m288.29 332.2v38.98c0 6.87-7.54 11.07-13.38 7.45l-34.94-21.64c10.69-4.87 21.94-13.15 30.34-23.58-4.41-2.07-7.57-6.27-8.13-11.28l-.83-7.31h9.56c9.6 0 17.38 7.78 17.38 17.38z" fill="#e8edf2"/><path d="m201.94 356.99-34.94 21.64c-5.84 3.62-13.38-.58-13.38-7.45v-38.98c0-9.6 7.78-17.38 17.38-17.38h9.56l-.83 7.31c-.56 5-3.71 9.2-8.13 11.28 8.4 10.43 19.65 18.71 30.34 23.58z" fill="#e8edf2"/><g><g><path d="m241.649 379.721v117.46c0 4.042 3.277 7.319 7.319 7.319h170.063c4.042 0 7.319-3.277 7.319-7.319v-117.46c0-4.042-3.277-7.319-7.319-7.319h-170.063c-4.042 0-7.319 3.277-7.319 7.319z" fill="#fe9738"/><path d="m426.349 497.181v-117.46c0-4.042-3.277-7.319-7.319-7.319h-128.073c-4.042 0-7.319 3.277-7.319 7.319v117.46c0 4.042 3.277 7.319 7.319 7.319h128.074c4.042 0 7.318-3.277 7.318-7.319z" fill="#596c76"/><path d="m419.031 372.402h-24c4.042 0 7.319 3.277 7.319 7.318v117.46c0 4.042-3.277 7.319-7.319 7.319h24c4.042 0 7.319-3.277 7.319-7.319v-117.46c-.001-4.041-3.277-7.318-7.319-7.318z" fill="#465a61"/></g><g><path d="m397.938 442.093c0 5.524-6.568 19.065-11.145 27.83-1.826 3.497-6.828 3.497-8.653 0-4.577-8.766-11.145-22.306-11.145-27.83v-139.249c0-8.545 6.927-15.471 15.471-15.471 8.545 0 15.471 6.927 15.471 15.471v139.249z" fill="#e8edf2"/><path d="m382.467 287.373c-8.545 0-15.471 6.927-15.471 15.471v24.794h30.943v-24.794c-.001-8.544-6.928-15.471-15.472-15.471z" fill="#9facba"/><path d="m386.793 469.923c4.577-8.766 11.145-22.306 11.145-27.83h-30.943c0 5.524 6.567 19.064 11.145 27.83 1.826 3.497 6.828 3.497 8.653 0z" fill="#c5d3dd"/></g></g><g><path d="m253.197 225.206c1.861-3.7.37-8.209-3.33-10.07s-8.209-.37-10.07 3.33c-3.601 7.159-10.82 11.606-18.842 11.606s-15.241-4.447-18.842-11.605c-1.861-3.702-6.372-5.193-10.069-3.331-3.701 1.86-5.192 6.369-3.331 10.069 6.162 12.255 18.517 19.867 32.242 19.867s26.079-7.612 32.242-19.866z"/><path d="m172.733 170.455c-4.143 0-7.5 3.357-7.5 7.5v2.577c0 4.143 3.357 7.5 7.5 7.5s7.5-3.357 7.5-7.5v-2.577c0-4.142-3.357-7.5-7.5-7.5z"/><path d="m269.176 188.032c4.143 0 7.5-3.357 7.5-7.5v-2.577c0-4.143-3.357-7.5-7.5-7.5s-7.5 3.357-7.5 7.5v2.577c0 4.143 3.357 7.5 7.5 7.5z"/><path d="m419.03 364.9h-13.593v-62.057c0-12.666-10.305-22.971-22.971-22.971-12.667 0-22.972 10.305-22.972 22.971v62.057h-19.741c-1.749-4.416-3.966-8.072-6.638-10.889-8.337-8.769-20.886-15.944-37.325-21.38v-.431c0-13.719-11.161-24.88-24.88-24.88h-2.848c-.127-1.215-.264-2.497-.416-3.853 2.789-1.063 5.564-2.188 8.297-3.388 13.04-5.721 36.093-17.889 43.973-35.101 4.035-8.812 6.141-21.642 6.979-36.27h8.506c15.638 0 28.359-12.723 28.359-28.36 0-7.56-2.947-14.679-8.3-20.047-.724-.726-1.483-1.404-2.27-2.04v-85.533c15.339-17.292 24.67-40.029 24.67-64.907v-10.071c0-9.787-7.958-17.75-17.74-17.75h-54.16c-4.143 0-7.5 3.357-7.5 7.5s3.357 7.5 7.5 7.5h54.16c1.511 0 2.74 1.233 2.74 2.75v10.07c0 45.727-37.202 82.928-82.931 82.928h-141.929c-4.143 0-7.5 3.357-7.5 7.5s3.357 7.5 7.5 7.5h21.375c-3.92 15.515-17.859 26.792-34.575 26.792-3.849 0-7.072 2.912-7.462 6.741-.385 3.789-.782 8.073-1.153 12.709h-9.675c-.938 0-1.869.046-2.79.135v-91.505c0-12.754 10.376-23.13 23.13-23.13h8.641c7.939 0 14.399-6.46 14.399-14.4v-5.46c0-12.479 10.147-22.63 22.62-22.63h103.45c4.143 0 7.5-3.357 7.5-7.5s-3.357-7.5-7.5-7.5h-103.45c-20.744 0-37.62 16.881-37.62 37.63v4.86h-8.04c-21.024 0-38.13 17.105-38.13 38.13v97.646c-.784.634-1.541 1.309-2.264 2.031-5.356 5.357-8.306 12.479-8.306 20.053 0 15.638 12.722 28.36 28.359 28.36h8.532c.958 16.091 3.286 28.272 6.951 36.27 7.88 17.212 30.933 29.38 43.973 35.101 2.745 1.204 5.532 2.334 8.334 3.402l-.436 3.838h-2.863c-13.719 0-24.88 11.161-24.88 24.88v.431c-16.441 5.436-28.99 12.612-37.318 21.374-5.151 5.404-8.521 13.585-10.302 25.01-.639 4.093 2.162 7.928 6.255 8.565.392.062.78.091 1.165.091 3.632 0 6.824-2.645 7.4-6.346 1.59-10.198 4.324-14.857 6.346-16.979 5.772-6.072 14.821-11.458 26.454-15.814v22.647c0 5.898 3.201 11.345 8.354 14.213 2.461 1.37 5.186 2.051 7.908 2.051 2.977 0 5.95-.815 8.567-2.438l31.606-19.575c6.418 2.518 12.72 3.927 18.4 3.927s11.981-1.409 18.399-3.927l2.294 1.421c-4.471 2.555-7.498 7.36-7.498 12.868v117.28h-108.938c-3.282-14.51-11.598-54.007-12.979-87.36-.171-4.139-3.705-7.369-7.804-7.183-4.139.171-7.354 3.665-7.183 7.804 1.779 43.007 14.202 93.887 14.73 96.032.824 3.352 3.83 5.707 7.282 5.707h129.71 73.681 96.38c8.172 0 14.819-6.648 14.819-14.82v-117.46c.002-8.172-6.646-14.82-14.818-14.82zm-28.592 69.693h-15.942v-62.096c0-.033.005-.064.005-.097s-.004-.064-.005-.097v-37.166h15.942zm-2.315 15c-1.181 2.948-2.963 6.951-5.657 12.325-2.693-5.374-4.476-9.377-5.656-12.325zm-5.656-154.72c4.396 0 7.971 3.575 7.971 7.971v17.294h-15.942v-17.294c-.001-4.396 3.575-7.971 7.971-7.971zm-60.228 69.47c.164.173.322.368.481.558h-26.93v-16.369c11.632 4.356 20.68 9.742 26.449 15.811zm13.161-150.633h-8.068c.039-8.702-.25-17.735-.755-26.72h8.822c3.574 0 6.928 1.388 9.439 3.905 2.527 2.535 3.92 5.893 3.92 9.454.002 7.368-5.991 13.361-13.358 13.361zm0-41.72h-9.853c-1.751-21.737-4.42-41.839-6.286-54.498 6.739-2.967 13.083-6.669 18.928-11.009v65.642c-.92-.089-1.851-.135-2.789-.135zm-242.25 28.36c0-3.568 1.39-6.923 3.912-9.446 2.524-2.523 5.879-3.913 9.447-3.913h8.679c-.447 8.499-.717 17.588-.637 26.72h-8.043c-7.364-.001-13.358-5.994-13.358-13.361zm42.481 58.382c-3.358-7.326-5.358-20.347-5.946-37.229.004-.098.015-.194.015-.293 0-.294-.021-.583-.054-.868-.358-11.697-.047-25.196.948-39.904.039-.311.066-.625.066-.947 0-.008-.001-.016-.001-.024.281-4.041.611-8.168.995-12.377 21.904-2.914 39.272-19.62 43.056-41.341h105.22c8.606 0 16.954-1.12 24.911-3.215 7.32 50.719 11.722 113.737 1.437 136.202-9.427 20.591-60.104 39.933-85.322 39.933s-75.897-19.343-85.325-39.937zm27.418 113.523c-.156.099-.633.394-1.279.031-.431-.239-.649-.612-.649-1.106v-32.9c0-.015 0-.029 0-.044v-6.036c0-5.448 4.432-9.88 9.88-9.88h1.07c-.517 1.871-1.828 3.44-3.663 4.304-.031.015-.059.033-.09.048-4.334 2.128-5.572 7.699-2.556 11.444 5.996 7.439 13.449 14.038 21.355 19.233zm42.474-21.848c-.239-.129-.484-.244-.734-.347-7.443-3.426-15.441-8.795-22.359-15.787 2.604-3.173 4.278-7.064 4.753-11.298l1.661-14.633c11.783 3.392 23.105 5.325 32.111 5.325 9.012 0 20.342-1.936 32.132-5.332.155 1.479.297 2.881.431 4.216.341 3.391.648 6.418 1.064 9.142l.144 1.27c.245 2.19.815 4.285 1.662 6.238.725 1.937 1.664 3.666 2.928 5.222-6.49 6.497-14.38 12.061-22.456 15.741-.095.043-.18.101-.272.147-5.856 2.631-11.34 4.045-15.633 4.045-4.244.001-9.651-1.375-15.432-3.949zm65.918-6.933c.018-.02.037-.039.056-.058 1.653-1.739 3.388-3.731 4.653-5.3 3.037-3.774 1.742-9.344-2.555-11.443-.031-.016-.06-.034-.091-.049-.001 0-.002-.001-.003-.001s-.002-.001-.002-.001c-1.48-.695-2.616-1.853-3.273-3.261-.102-.308-.199-.653-.292-1.04h.979c5.448 0 9.88 4.432 9.88 9.88v6.054c0 .005-.002.011-.002.017v26.628h-13.804l-12.191-7.551c5.947-3.909 11.637-8.615 16.645-13.875zm-22.291 36.426h26.987v117.1h-26.987zm169.7 117.1h-96.2-31.513v-117.1h43.195c.008 0 .016.002.024.002.01 0 .02-.002.029-.002h25.109v62.192c0 2.277 0 8.327 11.996 31.302 2.143 4.104 6.349 6.651 10.977 6.651 4.628-.001 8.833-2.55 10.974-6.651 11.996-22.975 11.996-29.024 11.996-31.302v-62.192h13.412v117.1z"/><path d="m262.644 421.563c4.143 0 7.5-3.357 7.5-7.5v-10.214c0-4.143-3.357-7.5-7.5-7.5s-7.5 3.357-7.5 7.5v10.214c0 4.142 3.357 7.5 7.5 7.5z"/><path d="m262.644 455.34c-4.143 0-7.5 3.357-7.5 7.5v10.214c0 4.143 3.357 7.5 7.5 7.5s7.5-3.357 7.5-7.5v-10.214c0-4.143-3.358-7.5-7.5-7.5z"/><path d="m262.208 445.951h.871c4.143 0 7.5-3.357 7.5-7.5s-3.357-7.5-7.5-7.5h-.871c-4.143 0-7.5 3.357-7.5 7.5s3.357 7.5 7.5 7.5z"/></g></g></svg>